<svg xmlns="http://www.w3.org/2000/svg" xmlns:xlink="http://www.w3.org/1999/xlink" width="378" zoomAndPan="magnify" viewBox="0 0 283.5 283.500005" height="378" preserveAspectRatio="xMidYMid meet" version="1.0"><defs><clipPath id="89a7a46cc7"><path d="M 67 267 L 101 267 L 101 276.832031 L 67 276.832031 Z M 67 267 " clip-rule="nonzero"/></clipPath><clipPath id="e746df2229"><path d="M 192 6.523438 L 200 6.523438 L 200 14 L 192 14 Z M 192 6.523438 " clip-rule="nonzero"/></clipPath><clipPath id="f1a7db53ec"><path d="M 103 8 L 246.820312 8 L 246.820312 276.832031 L 103 276.832031 Z M 103 8 " clip-rule="nonzero"/></clipPath><clipPath id="89601ef2bc"><path d="M 35.664062 159 L 79 159 L 79 268 L 35.664062 268 Z M 35.664062 159 " clip-rule="nonzero"/></clipPath><clipPath id="cbbe5cbc27"><path d="M 10 12 L 98 12 L 98 96 L 10 96 Z M 10 12 " clip-rule="nonzero"/></clipPath><clipPath id="db3de165df"><path d="M -4.386719 72.757812 L 79.34375 -3.21875 L 106.515625 26.726562 L 22.78125 102.703125 Z M -4.386719 72.757812 " clip-rule="nonzero"/></clipPath><clipPath id="4b89b0fb86"><path d="M -4.386719 72.757812 L 79.34375 -3.21875 L 106.515625 26.726562 L 22.78125 102.703125 Z M -4.386719 72.757812 " clip-rule="nonzero"/></clipPath><clipPath id="f99e18c6fb"><rect x="0" width="248" y="0" height="278"/></clipPath></defs><g transform="matrix(1, 0, 0, 1, 0, 0.000000000000005262)"><g clip-path="url(#f99e18c6fb)"><g clip-path="url(#89a7a46cc7)"><path fill="#7d178a" d="M 100.753906 269.285156 C 86.511719 269.417969 78.664062 279.136719 67.785156 276.097656 L 83.867188 269.746094 C 89.457031 267.542969 95.398438 265.761719 100.753906 269.285156 Z M 100.753906 269.285156 " fill-opacity="1" fill-rule="nonzero"/></g><g clip-path="url(#e746df2229)"><path fill="#7d178a" d="M 199.179688 6.523438 C 196.707031 8.660156 195.554688 10.054688 193.304688 13.667969 C 192.953125 13.425781 192.25 10.125 192.652344 8.761719 C 193.054688 7.394531 196.566406 6.570312 199.171875 6.523438 Z M 199.179688 6.523438 " fill-opacity="1" fill-rule="nonzero"/></g><g clip-path="url(#f1a7db53ec)"><path fill="#7d178a" d="M 192.460938 18.789062 L 201.917969 8.851562 C 202.160156 9.675781 202.691406 12.476562 202.078125 12.988281 L 198.089844 16.292969 L 203.957031 18.421875 C 207.332031 19.644531 204.453125 26.394531 208.6875 29.78125 L 208.847656 36.695312 L 204.859375 66.480469 L 215.824219 41.265625 C 217.179688 42.953125 217.800781 46.292969 217.230469 47.613281 L 210.90625 62.183594 L 220.953125 59.820312 L 222.695312 63.292969 L 209.949219 63.871094 L 202.46875 81.644531 C 200.96875 85.21875 202.855469 91.175781 202.914062 95.003906 L 203.335938 124.585938 L 204.15625 125.542969 L 211.710938 138.78125 C 211.8125 138.957031 212.027344 139.070312 212.914062 139.730469 L 232.109375 138.191406 L 225.761719 116.644531 L 213.511719 118.648438 C 211.753906 117.621094 211.660156 111.605469 213.878906 110.902344 L 224.585938 107.5 C 223.796875 97.902344 221.695312 89.058594 223.5625 79.765625 L 230.226562 46.671875 L 231.296875 45.976562 C 231.285156 44.722656 230.777344 42.234375 229.597656 41.804688 L 223.671875 39.648438 C 226.574219 39.035156 231.328125 40.367188 234.53125 42.507812 L 244.914062 81.59375 C 247.296875 90.5625 247.003906 99.082031 244.164062 108.03125 L 235.652344 134.875 C 234.6875 137.90625 234.707031 139.679688 231.785156 141.484375 L 230.605469 161.679688 L 229.273438 179.351562 C 227.53125 202.433594 229.308594 225.15625 230.726562 248.410156 L 231.632812 263.21875 C 230.054688 267.675781 225.726562 272.890625 220.179688 273.710938 C 226.238281 269.507812 228.648438 264.269531 228.222656 256.855469 L 226.421875 225.636719 L 226.503906 181.332031 L 227.703125 168.648438 L 228.953125 157.089844 L 229.882812 141.15625 C 222.957031 142.070312 218.011719 141.796875 212.207031 140.257812 L 211.089844 139.671875 C 207.148438 137 204.765625 131.261719 203.222656 126.183594 L 202.722656 125.824219 L 196.367188 133.949219 C 191.890625 139.667969 182.6875 141.886719 175.617188 143.609375 L 178.464844 170.484375 C 184.03125 179.429688 190.007812 187.546875 193.703125 197.582031 L 179.464844 201.101562 L 184.125 211.804688 L 192.855469 236.417969 L 183.398438 236.433594 L 192.238281 267.292969 C 192.5625 268.410156 193.019531 271.136719 193.996094 271.054688 L 198.398438 270.667969 C 199.625 270.558594 198.800781 266.738281 198.785156 265.5 L 198.417969 221.839844 L 200.71875 173.710938 C 201.132812 165.136719 200.054688 157.167969 203.238281 148.738281 C 206.140625 159.753906 207.363281 169.933594 207.753906 180.664062 L 209.300781 223.0625 L 211.691406 266.425781 C 211.871094 269.652344 214.910156 272.351562 217.308594 273.675781 C 215.609375 274.484375 209.632812 272.148438 209.503906 270.128906 L 206.765625 225.597656 L 205.460938 179.972656 L 203.972656 162.988281 L 202.925781 176.207031 L 201.722656 191.464844 L 201.460938 224.382812 L 201.878906 271.894531 C 187.730469 275.210938 179.941406 265.5625 169.109375 273.96875 C 155.925781 284.199219 150.441406 265.914062 128.371094 273.714844 C 120.0625 276.65625 109.648438 278.304688 103.25 271.476562 L 108.9375 273.539062 C 123.457031 274.820312 134.140625 264.359375 148.890625 271.085938 C 156.25 276.410156 164.925781 274.433594 170.6875 267.644531 L 166.269531 239.070312 L 160.027344 201.644531 L 146.574219 151.90625 L 158.695312 186.585938 L 165.769531 220.394531 L 169.332031 240.589844 L 179.785156 234.554688 L 171.917969 204.898438 L 182.242188 234.023438 L 188.796875 233.78125 L 177.902344 205.398438 L 151.0625 140.554688 L 178.40625 198.886719 L 189.917969 196.835938 L 184.890625 186.953125 L 157.761719 141.960938 C 150.1875 129.398438 143.097656 117.652344 134.09375 106.046875 C 130.800781 101.792969 126.824219 96.246094 126.761719 90.992188 C 126.640625 80.535156 135.761719 73.351562 144.820312 70.898438 C 146.429688 70.460938 148.453125 67.804688 149.789062 65.921875 C 150.003906 66.5 150.015625 70.480469 149.074219 71.640625 C 147.101562 74.070312 129.898438 76.355469 129.847656 91.417969 C 129.828125 96.664062 133.828125 102.644531 137.054688 106.597656 L 149.261719 121.601562 L 154.207031 92.78125 L 157.890625 64.605469 C 158.835938 57.367188 160.824219 49.945312 164.75 43.433594 C 168.335938 37.476562 182.789062 35.003906 189.152344 27.195312 C 189.539062 23.101562 189.90625 20.296875 190.488281 18.867188 L 192.46875 18.800781 Z M 192.585938 19.042969 L 192.144531 19.859375 L 190.671875 30.007812 C 189.601562 37.40625 192.195312 45.019531 193.976562 53.660156 L 196.09375 39.460938 C 194.734375 38.34375 193.277344 37.3125 193.816406 36.792969 L 196.402344 34.308594 C 196.820312 33.902344 196.046875 32.613281 195.472656 32.378906 L 192.1875 31.046875 L 204.105469 28.746094 L 203.25 22.390625 L 192.5 22.695312 L 198.816406 19.878906 L 192.585938 19.03125 Z M 200.757812 49.542969 C 200.117188 46.203125 198.515625 39.308594 200.699219 37.121094 L 207.242188 30.566406 C 203.476562 31.378906 199.402344 34.015625 197.5 36.726562 L 196.96875 55.492188 C 199.070312 55.019531 201.765625 54.820312 201.601562 53.949219 L 200.757812 49.550781 Z M 193.964844 62.011719 L 188.238281 32.480469 C 187.542969 32.296875 184.691406 35.359375 185.113281 36.304688 L 186.730469 39.867188 L 183.300781 45.113281 L 193.96875 62.011719 Z M 204.007812 54.71875 L 207.515625 35.585938 C 205.585938 36.226562 202.347656 38.085938 201.539062 39.75 C 200.828125 41.210938 201.539062 45.101562 201.941406 46.679688 L 204.015625 54.71875 Z M 176.960938 92.113281 C 179.277344 96.898438 178.59375 100.949219 177.570312 105.921875 L 170.191406 141.898438 C 182.933594 142.070312 193.335938 135.953125 198.601562 124.289062 C 200.984375 119.007812 200.667969 110.984375 199.984375 105.636719 C 196.382812 105.265625 196.652344 103.347656 200.128906 103.1875 C 200.441406 97.085938 202.832031 87.011719 199.726562 80.78125 L 184.183594 49.59375 L 181.082031 43.726562 C 181.90625 40.734375 182.101562 39.890625 181.886719 35.898438 L 165.957031 43.667969 C 161.605469 54.316406 159.589844 64.472656 158.550781 75.792969 L 157.71875 84.824219 L 151.355469 124.257812 L 161.914062 142.234375 L 173.46875 82.90625 C 175.757812 71.164062 170.808594 59.808594 169.496094 47.984375 C 174.027344 57.859375 176.855469 69.582031 176.257812 80.972656 C 176.050781 84.988281 175.367188 88.773438 176.976562 92.109375 Z M 232.164062 46.875 L 231.460938 47.664062 L 226.25 76.25 L 232.753906 95.429688 L 228.804688 110.21875 C 228.886719 117.660156 231.191406 124.207031 233.332031 130.683594 C 237.332031 118.320312 243.175781 106.382812 242.816406 93.800781 L 234.585938 52.453125 C 234.230469 50.671875 233.136719 47.902344 232.164062 46.882812 Z M 202.632812 59.902344 C 202.496094 58.292969 196.179688 58.3125 196.046875 59.457031 L 200.363281 73.902344 C 201.601562 70.46875 203.007812 64.242188 202.640625 59.910156 Z M 226.417969 100.398438 C 231.273438 94.613281 227.980469 89.445312 226.316406 84.839844 Z M 173.964844 142.867188 C 170.359375 142.714844 168.832031 142.765625 168.507812 142.074219 C 168.183594 141.382812 167.523438 138.539062 167.746094 137.453125 L 173.210938 110.726562 C 174.695312 103.484375 177 97.546875 174.558594 90.851562 L 164.078125 146 L 175.433594 165.363281 L 173.957031 142.863281 Z M 225.949219 114.050781 C 225.34375 111.949219 224.964844 110.027344 224.234375 110.171875 L 220.488281 110.933594 L 214.671875 112.121094 C 213.636719 112.328125 213.515625 114.910156 213.6875 117.09375 Z M 189.328125 269.113281 C 187.261719 256.792969 185.082031 247.816406 181.109375 237.289062 L 170.339844 244.03125 L 173.4375 267.089844 L 189.335938 269.121094 Z M 189.328125 269.113281 " fill-opacity="1" fill-rule="nonzero"/></g><path fill="#7d178a" d="M 38.800781 196.542969 C 38.40625 189.964844 41.191406 184.011719 44.367188 178.175781 L 57.402344 154.183594 C 65.136719 139.953125 75.964844 127.535156 86.75 115.453125 C 91.960938 109.621094 99.277344 105.265625 101.539062 97.121094 C 103.683594 89.40625 99.523438 82.246094 96.988281 74.59375 C 102.578125 80.90625 106.382812 89.863281 104.1875 98.859375 C 103.066406 103.472656 97.976562 108.203125 94.75 111.796875 L 74.304688 134.578125 C 64.972656 144.972656 57.214844 156.167969 51.433594 168.84375 L 38.800781 196.550781 Z M 38.800781 196.542969 " fill-opacity="1" fill-rule="nonzero"/><path fill="#7d178a" d="M 119.058594 21.332031 C 117.929688 21.058594 115.75 20.578125 114.730469 21.140625 C 113.507812 21.8125 112.46875 24.40625 111.3125 26.851562 C 110.292969 25.363281 109.984375 21.421875 111.53125 20.160156 C 113.589844 18.480469 118.070312 19.003906 119.617188 20.609375 L 120.480469 21.503906 C 120.871094 22.390625 121.863281 25.914062 120.902344 26.78125 L 117.367188 29.984375 C 119.636719 29.855469 124.625 31.859375 124.808594 33.988281 L 125.753906 44.9375 L 122.078125 37.324219 L 109.964844 36.828125 C 110.015625 41.988281 108.359375 46.691406 103.734375 48.621094 L 93.363281 52.9375 L 92.34375 55.167969 C 92.101562 55.691406 90.410156 55.289062 89.6875 55.199219 L 83.347656 69.898438 C 83.613281 60.085938 88.03125 51.269531 96.914062 48.269531 C 104.390625 45.746094 106.472656 39.535156 107.605469 32.476562 C 111.882812 29.882812 117.480469 26.261719 119.503906 23.019531 L 119.066406 21.332031 Z M 122.230469 34.105469 C 121.746094 33.089844 119.984375 31.21875 119.292969 31.804688 L 116.03125 34.585938 L 115.59375 28.652344 C 114.445312 30.910156 114.109375 31.9375 113.457031 32.273438 L 109.183594 34.457031 C 112.6875 35.574219 117.660156 35.226562 122.230469 34.097656 Z M 122.230469 34.105469 " fill-opacity="1" fill-rule="nonzero"/><path fill="#7d178a" d="M 43.949219 269.441406 L 57.441406 267.15625 C 57.949219 251.015625 61.0625 236.273438 65.316406 220.792969 L 74.410156 187.695312 L 81.828125 172.234375 L 72.019531 203.25 L 67.648438 220.523438 C 63.699219 236.113281 60.179688 250.574219 59.820312 267.191406 C 55.414062 269.613281 50.296875 270.558594 43.941406 269.4375 Z M 43.949219 269.441406 " fill-opacity="1" fill-rule="nonzero"/><path fill="#7d178a" d="M 37.175781 233.261719 C 38.609375 223.0625 40.757812 212.160156 45.335938 201.957031 L 60.261719 168.648438 C 67.964844 151.457031 77.515625 135.21875 92.714844 122.710938 C 68.914062 150.085938 50.4375 188.203125 40.238281 224.839844 C 39.535156 227.363281 41.753906 231.425781 37.175781 233.261719 Z M 37.175781 233.261719 " fill-opacity="1" fill-rule="nonzero"/><g clip-path="url(#89601ef2bc)"><path fill="#7d178a" d="M 44.417969 236.394531 L 36.203125 267.714844 C 35.464844 262.425781 36.238281 254.554688 38.636719 248.203125 C 50.011719 217.980469 62.59375 188.644531 78.824219 159.539062 L 46.070312 233.257812 L 50.144531 235.285156 L 44.421875 236.386719 Z M 44.417969 236.394531 " fill-opacity="1" fill-rule="nonzero"/></g><path fill="#7d178a" d="M 108.144531 61.082031 C 103.464844 61.441406 98.117188 59.578125 94.292969 57.507812 C 109.824219 59.015625 128.898438 58.9375 140.808594 51.910156 L 129.511719 47.445312 C 136.523438 46.558594 141.320312 49.417969 145.128906 54.046875 C 139.199219 57.105469 133.605469 59.117188 127.371094 59.597656 L 108.152344 61.082031 Z M 108.144531 61.082031 " fill-opacity="1" fill-rule="nonzero"/><path fill="#7d178a" d="M 215.398438 38.300781 L 212.828125 40.992188 C 212.484375 41.347656 210.945312 40.101562 211.089844 39.632812 L 212.046875 36.542969 L 213.015625 33.414062 C 213.269531 32.601562 215.886719 34.40625 216.433594 35.0625 C 216.976562 35.714844 216.007812 37.671875 215.398438 38.304688 Z M 215.398438 38.300781 " fill-opacity="1" fill-rule="nonzero"/><path fill="#7d178a" d="M 96.050781 74.203125 C 92.203125 73.644531 88.90625 72.832031 85.3125 71.558594 C 89.117188 71.171875 92.394531 71.660156 96.050781 74.203125 Z M 96.050781 74.203125 " fill-opacity="1" fill-rule="nonzero"/><path fill="#7d178a" d="M 180.859375 117.46875 L 183.339844 112.753906 C 183.644531 112.175781 185.203125 111.664062 185.691406 112.042969 C 186.34375 112.558594 186.46875 114.597656 186.097656 115.351562 L 184.492188 118.566406 C 184.207031 119.136719 182.605469 118.25 180.859375 117.460938 Z M 180.859375 117.46875 " fill-opacity="1" fill-rule="nonzero"/><g clip-path="url(#cbbe5cbc27)"><g clip-path="url(#db3de165df)"><g clip-path="url(#4b89b0fb86)"><path fill="#cb6ce6" d="M 68.375 61.640625 C 65.285156 63.328125 61 60.992188 58.449219 58.179688 C 55.742188 58.449219 52.90625 58.335938 51.046875 56.28125 C 49.230469 54.28125 49.457031 51.484375 51.09375 49.605469 C 54.3125 45.910156 53.171875 52.976562 50.515625 37.398438 C 50.023438 34.515625 49.539062 30.730469 47.585938 28.578125 C 47.105469 28.050781 46.859375 27.875 46.570312 27.863281 C 45.410156 27.804688 42.253906 35.3125 44.519531 42.296875 C 45.101562 44.089844 46.101562 46.203125 46.660156 46.828125 C 46.859375 47.046875 46.878906 47.09375 46.847656 47.300781 C 46.808594 47.597656 46.605469 47.792969 46.363281 47.769531 C 46.265625 47.761719 45.808594 47.640625 45.34375 47.496094 C 41.257812 46.246094 33.558594 45.222656 30.929688 47.601562 C 29.222656 49.144531 31.152344 51.316406 33.0625 52.542969 C 37.914062 55.652344 45.265625 55.359375 48.011719 53.898438 C 49.179688 53.277344 49.0625 54.21875 48.675781 55.480469 C 47.527344 59.222656 45.746094 61.679688 43.148438 63.9375 C 36.738281 69.5 30.34375 68.285156 22.929688 71.253906 C 11.359375 75.890625 8.609375 87.824219 15.066406 92.640625 C 17.3125 94.316406 20.597656 95.066406 22.820312 93.617188 C 23.277344 93.320312 23.503906 93.289062 23.6875 93.492188 C 24.515625 94.402344 19.554688 96.96875 14.605469 93.394531 C 8.4375 88.9375 9.925781 78.644531 17.808594 73.058594 C 26.246094 67.082031 34.425781 69.558594 41.792969 63.9375 C 46.835938 60.089844 48.160156 54.625 47.808594 54.945312 C 47.683594 55.058594 46.011719 55.472656 45.164062 55.605469 C 37.777344 56.734375 31.421875 53.566406 29.792969 50.484375 C 27.253906 45.671875 35.785156 43.90625 44.882812 46.457031 C 45.574219 46.648438 45.472656 46.683594 45.3125 46.378906 C 43.8125 43.519531 43.007812 40.804688 42.859375 38.117188 C 42.695312 35.042969 43.320312 31.601562 44.515625 29.039062 C 45.484375 26.953125 46.664062 26.210938 48.242188 27.972656 C 51.539062 31.644531 50.644531 38.089844 53.917969 47.984375 C 55.609375 47.789062 57.191406 47.9375 59.53125 49.515625 C 60.703125 50.304688 59.996094 50.109375 59.074219 46.859375 C 56.179688 36.628906 60.851562 27.445312 66.34375 35.074219 C 68.8125 38.5 69.632812 42.335938 69.691406 42.398438 C 69.757812 42.46875 71.390625 40.605469 74.324219 38.726562 C 78.855469 35.824219 86.238281 33.429688 91.152344 29.976562 C 95.796875 26.710938 98.285156 20.808594 96.128906 16.667969 C 93.796875 12.179688 86.925781 11.910156 83.671875 16.089844 C 82.1875 17.996094 82.074219 20.589844 82.535156 20.980469 C 83.085938 21.445312 82.472656 22.699219 81.871094 22.035156 C 81.058594 21.136719 80.878906 15.375 86.246094 13.019531 C 92.820312 10.132812 100.402344 15.550781 96.902344 24.210938 C 93.046875 33.742188 80.320312 34.75 72.242188 41.320312 C 71.171875 42.1875 69.984375 43.359375 69.984375 43.539062 C 69.988281 43.957031 70.660156 46.246094 70.460938 49.527344 C 69.859375 59.421875 61.375 52.738281 68.453125 43.886719 C 68.726562 43.542969 68.957031 43.222656 68.964844 43.171875 C 68.984375 43.078125 68.167969 39.511719 66.097656 36.261719 C 60.769531 27.890625 57.214844 38.179688 60.109375 47.296875 C 60.996094 50.097656 61.875 51.152344 61.945312 51.5 C 61.964844 51.613281 62.011719 51.738281 62.046875 51.773438 C 62.132812 51.867188 62.0625 52.125 61.917969 52.257812 C 61.691406 52.464844 61.542969 52.402344 61 51.867188 C 59.132812 50.039062 56.777344 48.480469 54.214844 48.824219 C 55.46875 52.039062 56.761719 54.792969 58.835938 57.265625 C 62.480469 56.648438 66.007812 55.765625 68.480469 57.394531 C 70.269531 58.578125 70.222656 60.632812 68.375 61.640625 Z M 67.328125 57.78125 C 65.117188 56.847656 62.222656 57.601562 59.488281 58.042969 C 61.175781 59.628906 62.878906 60.933594 65.265625 61.242188 C 68.78125 61.703125 70.34375 59.050781 67.328125 57.78125 Z M 68.894531 52.71875 C 70.253906 50.148438 69.300781 44.332031 69.222656 44.328125 C 69.1875 44.324219 66.710938 47.246094 66.539062 50.339844 C 66.445312 52.019531 67.0625 53.578125 67.972656 53.542969 C 68.570312 53.519531 68.855469 52.703125 68.894531 52.71875 Z M 53.296875 49.085938 C 53.0625 49.136719 50.789062 50.285156 50.671875 52.851562 C 50.582031 54.875 51.800781 56.289062 53.601562 56.980469 C 54.828125 57.453125 56.460938 57.457031 57.765625 57.382812 C 54.402344 52.929688 53.582031 49.027344 53.296875 49.085938 Z M 53.296875 49.085938 " fill-opacity="1" fill-rule="nonzero"/></g></g></g></g></g></svg>