<svg xmlns="http://www.w3.org/2000/svg" xmlns:xlink="http://www.w3.org/1999/xlink" width="378" zoomAndPan="magnify" viewBox="0 0 283.5 283.500005" height="378" preserveAspectRatio="xMidYMid meet" version="1.0"><defs><g/><clipPath id="63bd775792"><path d="M 1 1.300781 L 266 1.300781 L 266 176.511719 L 1 176.511719 Z M 1 1.300781 " clip-rule="nonzero"/></clipPath><clipPath id="8bb67892e7"><rect x="0" width="267" y="0" height="224"/></clipPath></defs><g transform="matrix(1, 0, 0, 1, 8, 27)"><g clip-path="url(#8bb67892e7)"><g clip-path="url(#63bd775792)"><path fill="#8c079d" d="M 143.59375 10.601562 C 144.8125 11.886719 146.507812 13.089844 147.945312 14.367188 C 152.484375 18.40625 159.851562 24.316406 163.386719 29.328125 C 163.832031 29.964844 163.507812 29.851562 164.1875 30.347656 C 164.605469 30.652344 165.003906 31.453125 165.195312 31.851562 C 165.320312 32.101562 166.148438 33.140625 166.359375 33.207031 C 169.550781 33.320312 172.761719 33.101562 175.957031 33.207031 C 176.214844 33.207031 176.367188 33.445312 176.621094 33.453125 C 191.011719 34.09375 204.15625 35.066406 217.972656 39.648438 C 220.261719 40.410156 222.726562 41.277344 225.054688 42.164062 C 233.171875 45.261719 241.503906 49.503906 248.515625 54.351562 C 249.515625 55.046875 250.164062 55.574219 251.261719 56.171875 C 251.59375 56.355469 252.050781 57.15625 252.386719 57.335938 C 254.292969 58.382812 255.597656 59.8125 257.199219 61.203125 C 257.503906 61.472656 258.285156 62.625 258.550781 62.824219 C 259.238281 63.320312 258.902344 63.195312 259.351562 63.84375 C 259.5625 64.140625 260.132812 64.484375 260.277344 64.75 C 261.808594 67.515625 262.714844 72.707031 263.324219 75.871094 C 264.488281 81.914062 265.183594 88.15625 265.421875 94.351562 C 265.660156 100.542969 265.878906 106.816406 264.527344 112.90625 C 264.277344 114.011719 263.773438 114.894531 263.601562 115.640625 C 263.460938 116.257812 263.714844 116.660156 263.238281 117.335938 C 262.542969 118.335938 262.621094 117.9375 262.183594 119.25 C 261.820312 120.339844 260.4375 122.148438 259.820312 123.28125 C 259.597656 123.671875 258.648438 124.246094 258.425781 124.636719 C 257.769531 125.835938 257.339844 125.835938 256.597656 126.695312 C 255.007812 128.523438 253.679688 129.421875 251.691406 130.925781 C 251.269531 131.25 250.699219 132.109375 250.328125 132.308594 C 248.269531 133.441406 246.457031 134.917969 244.378906 136.1875 C 233.964844 142.542969 222.460938 146.496094 210.691406 149.355469 C 201.171875 151.671875 191.414062 153.367188 181.625 154.351562 C 179.738281 154.539062 177.691406 154.949219 175.925781 155.054688 C 164.785156 155.703125 153.152344 155.273438 142.085938 153.683594 C 132.183594 152.261719 122.359375 149.890625 112.640625 147.25 C 111.90625 147.050781 110.867188 146.394531 110.113281 146.601562 C 109.339844 147.210938 108.492188 147.726562 107.691406 148.296875 C 105.804688 149.660156 103.917969 151.070312 101.976562 152.414062 C 88.300781 161.878906 73.214844 170.457031 57.316406 175.191406 C 56.210938 175.527344 55.269531 175.992188 54.097656 176.089844 C 53.046875 176.171875 50.714844 176.105469 49.761719 175.832031 C 49.570312 175.773438 49.464844 175.46875 49.265625 175.410156 C 44.917969 174.191406 41.871094 173.066406 37.820312 171.085938 C 28.128906 166.320312 18.570312 160.554688 10.316406 153.332031 C 7.257812 150.652344 4.503906 146.070312 3.199219 142.160156 C 2.445312 139.902344 1.890625 138.121094 1.605469 135.757812 C 1.328125 133.546875 1.0625 131.15625 1.167969 128.867188 C 1.300781 125.953125 1.464844 122.617188 1.855469 119.726562 C 1.910156 119.289062 2.246094 119.242188 2.300781 119.03125 C 2.671875 117.71875 2.40625 114.933594 2.796875 113.582031 C 2.988281 112.933594 3.09375 112.953125 3.226562 111.953125 C 3.550781 109.683594 4.179688 107.492188 4.808594 105.300781 C 11.308594 82.589844 24.667969 61.5 41.296875 44.652344 C 53.191406 32.597656 66.675781 20.855469 82.316406 13.210938 C 87.5 10.675781 93.425781 8.09375 98.925781 6.273438 C 102.910156 4.960938 107.082031 3.910156 111.230469 3.042969 C 112.6875 2.738281 114.085938 2.578125 115.582031 2.378906 C 117.316406 2.140625 119.0625 1.558594 120.824219 1.441406 C 122.960938 1.308594 125.160156 1.472656 127.230469 1.691406 C 127.667969 1.738281 128.191406 1.613281 128.621094 1.671875 C 129.050781 1.730469 129.058594 2.003906 129.324219 2.109375 C 129.734375 2.273438 130.289062 2.28125 130.652344 2.386719 C 130.765625 2.414062 132.367188 3.347656 132.699219 3.539062 C 136.109375 5.417969 139.417969 8.066406 142.667969 10.257812 C 142.925781 10.429688 143.542969 10.574219 143.574219 10.609375 Z M 128.507812 5.121094 C 128.421875 5.015625 126.265625 4.503906 125.90625 4.40625 C 125.703125 4.351562 125.597656 4.042969 125.410156 3.988281 C 124.96875 3.863281 124.285156 4.082031 123.847656 3.949219 C 123.65625 3.890625 123.550781 3.578125 123.351562 3.53125 C 122.292969 3.226562 118.652344 4.160156 117.414062 4.417969 C 112.382812 5.484375 107.644531 7 102.765625 8.742188 C 89.28125 13.546875 76.101562 20.351562 64.96875 29.460938 C 59.902344 33.617188 54.628906 38.144531 49.988281 42.59375 C 32.378906 59.488281 17.140625 81.171875 10.546875 104.632812 C 10.085938 106.261719 9.457031 107.824219 9.171875 109.425781 C 8.601562 112.609375 7.894531 115.765625 7.589844 119.042969 C 7.542969 119.585938 7.714844 120.394531 7.589844 120.863281 C 7.535156 121.070312 7.199219 121.121094 7.144531 121.558594 C 7.058594 122.1875 7.210938 122.96875 7.160156 123.625 C 6.828125 128.105469 6.695312 132.546875 7.601562 136.882812 C 8.210938 139.789062 9.535156 143.589844 11.375 145.90625 C 12.613281 147.460938 14.957031 148.347656 16.835938 148.679688 C 18.339844 148.9375 20.121094 149.261719 21.65625 149.347656 C 23.304688 149.433594 25.03125 149.269531 26.6875 149.328125 C 26.785156 149.222656 27.003906 149.097656 27.03125 148.984375 C 27.261719 148.15625 26.964844 145.933594 27.03125 144.867188 C 27.394531 138.558594 29.253906 132.363281 30.492188 126.160156 C 36.429688 105.023438 46.71875 84.90625 60.0625 67.972656 C 62.65625 64.683594 65.378906 61.320312 68.058594 58.363281 C 70.734375 55.410156 73.421875 52.78125 76.28125 50.132812 C 77.757812 48.769531 79.550781 47.308594 81.210938 45.910156 C 93.234375 35.777344 108.160156 26.574219 123.636719 22.960938 C 126.800781 22.226562 129.964844 21.960938 133.203125 21.78125 C 134.148438 21.730469 135.300781 21.914062 136.1875 21.789062 C 137.074219 21.664062 136.558594 21.152344 136.519531 20.761719 C 136.339844 18.996094 136.558594 16.785156 136.054688 15.050781 C 135.996094 14.859375 135.691406 14.757812 135.632812 14.554688 C 135.445312 13.890625 135.425781 13.097656 135.128906 12.328125 C 134.679688 11.171875 133.117188 8.371094 132.195312 7.714844 C 131.9375 7.53125 131.316406 7.398438 131.289062 7.359375 C 131.15625 7.207031 131.488281 7.265625 130.8125 6.808594 C 130.257812 6.4375 129.660156 5.777344 129.070312 5.570312 C 128.144531 5.253906 128.792969 5.398438 128.523438 5.09375 Z M 140.160156 12.886719 C 137.921875 11.953125 138.988281 12.640625 139.457031 13.9375 C 140.378906 16.480469 140.550781 18.398438 140.847656 21 C 140.894531 21.425781 141.277344 22.160156 141.324219 22.582031 C 141.496094 24.152344 141.535156 28.832031 141.324219 30.355469 C 141.285156 30.605469 140.972656 30.394531 140.867188 30.480469 C 140.742188 30.585938 140.894531 33.292969 140.867188 33.796875 C 140.742188 35.777344 140.292969 38.027344 139.953125 39.972656 C 139.542969 42.296875 138.894531 44.738281 138.371094 47.082031 C 135.339844 60.746094 129 73.394531 121.082031 84.878906 C 113.164062 96.359375 104.035156 107.929688 93.082031 117.679688 C 84.917969 124.960938 76.386719 132.097656 67.257812 138.246094 C 57.945312 144.515625 47.960938 150.15625 37.171875 153.1875 C 33.929688 154.09375 31.480469 154.167969 28.28125 154.578125 C 27.042969 154.730469 25.410156 155.4375 23.964844 155.027344 C 23.753906 154.96875 23.707031 154.636719 23.265625 154.578125 C 22.621094 154.492188 20.703125 154.492188 20.054688 154.578125 C 19.769531 154.617188 19.542969 154.742188 19.492188 155.046875 L 21.550781 156.304688 C 31.128906 163.136719 41.746094 168.617188 52.78125 172.847656 C 55.269531 173.570312 57.824219 171.988281 60.101562 171.074219 C 74.222656 165.453125 87.859375 157.179688 100.183594 148.296875 C 112.210938 139.625 124.542969 128.582031 133.117188 117.023438 C 133.796875 116.117188 134.671875 115.257812 135.273438 114.363281 C 135.445312 114.105469 135.585938 113.484375 135.625 113.457031 C 135.703125 113.390625 135.988281 113.503906 136.054688 113.4375 C 136.179688 113.324219 137.472656 111.140625 137.777344 110.703125 C 146.652344 98.144531 155.199219 84.542969 160.039062 69.878906 C 161.078125 66.742188 162.28125 62.738281 162.84375 59.652344 C 163.175781 57.785156 163.757812 55.761719 163.96875 53.914062 C 164.433594 49.855469 164.339844 46.28125 163.96875 42.242188 C 163.9375 41.984375 163.738281 41.832031 163.71875 41.574219 C 163.605469 40.039062 164.136719 38.609375 163.15625 37.332031 C 162.554688 36.542969 162.070312 35.875 161.554688 35.046875 C 159.421875 31.671875 156.277344 27.8125 153.4375 25.335938 C 152.453125 24.488281 151.007812 22.789062 150.140625 21.78125 C 149.273438 20.769531 147.195312 19.367188 146.460938 18.367188 C 145.964844 17.683594 146.089844 18.015625 145.441406 17.566406 C 144.917969 17.195312 144.382812 16.40625 143.847656 15.957031 C 142.675781 14.964844 141.027344 14.011719 140.179688 12.886719 Z M 136.519531 25.449219 C 136.472656 25.390625 135.273438 25.640625 135.0625 25.707031 C 130.707031 26.992188 126.046875 28.707031 121.75 30.214844 C 99.488281 38.046875 81.371094 51.941406 66.238281 69.5625 C 48.664062 90.023438 36.933594 113.761719 31.597656 140.292969 C 31.140625 142.550781 30.929688 145.105469 30.433594 147.363281 C 30.347656 147.753906 29.652344 148.679688 30.347656 148.871094 C 30.710938 148.976562 30.9375 148.679688 31.253906 148.632812 C 33.492188 148.289062 35.902344 147.546875 38.085938 146.785156 C 49.417969 142.78125 60.167969 135.96875 69.773438 128.875 C 72.050781 127.199219 74.289062 125.457031 76.398438 123.617188 C 76.539062 123.492188 76.835938 123.492188 76.976562 123.28125 C 77.484375 122.53125 76.253906 120.546875 75.96875 119.710938 C 72.726562 109.960938 70.488281 99.828125 69.542969 89.785156 C 69.515625 89.527344 69.316406 89.375 69.296875 89.117188 C 69.097656 86.277344 69.746094 83.980469 70.191406 81.3125 C 71.195312 75.269531 75.683594 68.828125 80.046875 64.65625 C 81.734375 63.035156 84.296875 60.699219 86.230469 59.632812 C 86.804688 59.316406 88.289062 57.832031 88.964844 57.335938 C 90.101562 56.496094 91.53125 55.4375 92.636719 54.828125 C 93.113281 54.570312 94.199219 53.476562 94.675781 53.210938 C 96.90625 51.980469 99.125 50.625 101.394531 49.417969 C 106.863281 46.5 112.820312 43.824219 118.824219 41.707031 C 123.027344 40.230469 127.496094 38.820312 131.8125 37.78125 C 132.414062 37.636719 132.804688 37.570312 133.453125 37.359375 C 133.671875 37.292969 133.910156 37.371094 134.101562 37.324219 C 134.585938 37.191406 134.597656 35.664062 134.710938 35.1875 C 135.003906 33.96875 135.386719 32.796875 135.605469 31.519531 C 135.757812 30.632812 135.902344 30.605469 136.035156 30.117188 C 136.246094 29.382812 136.1875 27.574219 136.273438 26.699219 C 136.300781 26.429688 136.730469 25.667969 136.511719 25.449219 Z M 168.292969 62.710938 C 168.476562 62.890625 169.074219 62.5 169.3125 62.472656 C 183.40625 60.976562 198.675781 61.976562 212.320312 64.96875 C 223.644531 67.445312 236.0625 71.6875 245.3125 78.824219 C 247.410156 80.445312 249.019531 82.34375 251.03125 83.847656 C 251.613281 84.285156 251.433594 84.726562 252.175781 84.078125 C 252.699219 83.621094 253.730469 82.667969 254.121094 82.132812 C 254.957031 81.019531 256.332031 78.890625 256.949219 77.644531 C 258.570312 74.386719 258.742188 71.125 257.863281 67.636719 C 257.550781 66.398438 256.777344 64.914062 256.1875 63.835938 C 256.054688 63.597656 255.464844 63.28125 255.398438 63.023438 C 255.320312 62.75 255.445312 62.414062 255.367188 62.140625 C 255.195312 61.539062 254.195312 61.214844 253.777344 60.984375 C 252.863281 60.480469 251.554688 59.316406 250.585938 58.6875 C 246.078125 55.753906 241.214844 53.296875 236.328125 51.007812 C 223.863281 45.175781 210.042969 40.6875 196.292969 39.390625 C 190.125 38.808594 183.695312 38.152344 177.566406 38 C 174.488281 37.921875 171.382812 38.074219 168.304688 38 C 168.113281 38.179688 168.914062 39.972656 169.199219 40.191406 C 169.417969 43.652344 170.53125 47.175781 170.140625 50.695312 C 170.007812 51.914062 169.570312 53.484375 169.4375 54.792969 C 169.1875 57.15625 168.914062 59.128906 168.542969 61.433594 C 168.492188 61.710938 168.09375 62.472656 168.304688 62.683594 Z M 77.558594 90.347656 C 78.074219 90.824219 77.835938 90.347656 78.339844 91.28125 C 78.710938 91.976562 80.152344 92.550781 80.171875 93.570312 C 81.257812 94.332031 82.457031 96.238281 83.488281 96.875 C 83.675781 96.988281 83.839844 97.039062 84.058594 96.980469 C 84.289062 96.914062 85.820312 95.167969 86.230469 94.816406 C 90.996094 90.671875 96.820312 87.023438 102.230469 83.847656 C 107.367188 80.835938 112.488281 78.253906 117.917969 75.765625 C 118.242188 75.613281 118.832031 75.585938 119.148438 75.394531 C 119.96875 74.929688 120.386719 73.535156 120.855469 72.753906 C 125.132812 65.617188 128.992188 57.71875 131.230469 49.757812 C 131.757812 47.890625 132.097656 45.710938 132.652344 43.871094 C 132.738281 43.59375 133.15625 43.183594 133.082031 42.925781 C 132.890625 42.25 131.964844 42.917969 131.566406 43.011719 C 119.253906 46.035156 105.703125 51.800781 95.589844 59.15625 C 93.609375 60.605469 91.664062 62.378906 89.632812 63.492188 C 88.976562 63.855469 88.472656 64.703125 87.347656 65.320312 C 86.9375 65.550781 81.753906 70.773438 81.296875 71.382812 C 80.609375 72.289062 79.855469 73.433594 79.238281 74.355469 C 77.332031 77.214844 75.921875 80.1875 75.472656 83.621094 C 75.433594 83.933594 75.1875 84.105469 75.222656 84.535156 C 75.253906 84.792969 75.425781 84.933594 75.472656 85.210938 C 75.519531 85.488281 75.414062 85.800781 75.480469 86.105469 C 75.699219 87.097656 76.511719 88.269531 77.035156 89.128906 C 77.195312 89.402344 77.484375 90.300781 77.53125 90.347656 Z M 243.265625 91.0625 C 243.417969 90.890625 246.457031 89.136719 246.925781 88.890625 C 247.257812 88.707031 247.726562 87.90625 248.050781 87.726562 C 248.316406 87.582031 249.125 87.574219 248.972656 87.050781 C 248.867188 86.6875 245.914062 85.285156 245.324219 84.980469 C 241.472656 82.992188 237.460938 80.894531 233.582031 79.121094 C 213.511719 69.964844 191.707031 66.808594 169.789062 68.417969 C 168.722656 68.496094 168.160156 68.390625 167.046875 68.648438 C 166.875 68.6875 166.53125 68.582031 166.472656 68.648438 C 166.417969 68.695312 166.292969 69.867188 166.226562 70.105469 C 165.605469 72.296875 164.320312 75.433594 163.480469 77.644531 C 160.746094 84.839844 156.078125 92.511719 151.960938 99.039062 C 149.175781 103.460938 146.289062 107.835938 143.277344 112.066406 C 143.058594 112.371094 141.449219 114.019531 141.789062 114.351562 C 142.285156 114.191406 142.675781 114.554688 143.039062 114.589844 C 144.507812 114.734375 146.144531 114.714844 147.613281 114.820312 C 164.320312 116.039062 179.042969 114.734375 195.1875 111.636719 C 210.273438 108.738281 222.097656 104.269531 235.269531 96.410156 C 237.699219 94.960938 240.007812 93.261719 242.351562 91.835938 C 243.179688 91.328125 242.902344 91.453125 243.273438 91.050781 Z M 114.34375 143.621094 C 114.34375 143.621094 114.984375 143.820312 115.136719 143.859375 C 136.824219 149.082031 158 152.226562 180.511719 149.558594 C 190.449219 148.375 200.503906 146.460938 210.261719 143.875 C 225.359375 139.882812 238.042969 134.28125 250.347656 125 C 250.898438 124.578125 251.382812 123.808594 251.9375 123.386719 C 252.28125 123.128906 252.726562 123.109375 253.089844 122.710938 C 254.308594 121.347656 256.007812 119.089844 256.84375 117.554688 C 257.21875 116.878906 258.742188 115.945312 259.226562 115.132812 C 259.628906 114.476562 259.390625 114.019531 259.503906 113.351562 C 259.542969 113.132812 259.855469 112.628906 259.914062 112.390625 C 260.410156 110.074219 260.503906 107.84375 260.847656 105.546875 C 261.105469 103.765625 261.402344 101.613281 261.105469 100.03125 C 261.058594 99.753906 261.058594 95.121094 261.105469 94.84375 C 261.449219 93.023438 261.105469 90.746094 261.078125 88.871094 C 261.019531 86.050781 260.78125 83.382812 260.410156 80.628906 C 260.363281 80.246094 260.019531 79.882812 260.171875 79.378906 C 259.867188 79.398438 259.800781 79.703125 259.675781 79.914062 C 259.226562 80.675781 257.445312 84.609375 257.1875 84.859375 C 257.113281 84.925781 256.828125 84.8125 256.757812 84.878906 C 256.722656 84.90625 256.589844 85.523438 256.40625 85.78125 C 256.128906 86.171875 255.558594 86.527344 255.253906 86.917969 C 252.652344 90.367188 249.421875 93.121094 246.230469 95.949219 C 245.238281 96.835938 243.855469 97.921875 242.796875 98.695312 C 241.320312 99.78125 239.519531 100.6875 237.996094 101.660156 C 235.613281 103.175781 233.152344 104.851562 230.6875 106.234375 C 213.597656 115.800781 193.386719 119.433594 174.335938 121.195312 C 165.796875 121.988281 156.828125 121.796875 148.28125 121.214844 C 144.972656 120.984375 141.542969 120.824219 138.226562 120.527344 C 137.875 120.5 137.625 120.148438 137.101562 120.300781 C 136.988281 120.328125 135.902344 121.445312 135.71875 121.664062 C 135.035156 122.464844 134.75 122.816406 134.023438 123.503906 C 133.984375 123.539062 133.851562 124.148438 133.671875 124.40625 C 133.261719 124.988281 132.355469 125.65625 131.832031 126.226562 C 126.636719 131.992188 121.339844 137.273438 115.496094 142.34375 C 115.375 142.457031 113.953125 143.238281 114.355469 143.601562 Z M 114.800781 82.363281 L 113.191406 82.921875 C 104.765625 86.878906 96.800781 91.910156 89.195312 97.105469 C 88.59375 97.515625 87.621094 98.058594 87.136719 98.476562 C 86.03125 99.421875 87.488281 99.5625 88.042969 100.316406 C 89.328125 100.964844 90.625 101.6875 91.941406 102.355469 C 93.558594 103.183594 95.207031 103.957031 96.847656 104.746094 C 97.171875 104.519531 97.523438 104.414062 97.773438 104.078125 C 98.507812 103.070312 99.5625 102.15625 100.507812 101.105469 C 104.710938 96.445312 108.332031 91.234375 112.164062 86.25 L 114.792969 82.363281 Z M 92.636719 109.558594 C 93.207031 109.121094 91.367188 108.597656 91.253906 108.539062 C 87.289062 106.613281 83.25 103.925781 79.941406 101.105469 C 78.179688 99.609375 77.28125 97.675781 75.492188 96.1875 C 74.175781 95.09375 75.140625 97.210938 75.023438 98.027344 C 75.96875 104.871094 78.339844 111.464844 80.265625 118.164062 C 80.34375 118.414062 80.476562 119.566406 80.523438 119.625 C 80.675781 119.785156 81.464844 119.421875 81.667969 119.28125 C 82.792969 118.507812 84.410156 116.601562 85.546875 115.621094 C 87.527344 113.886719 90.492188 111.808594 92.054688 109.789062 C 92.265625 109.511719 92.597656 109.597656 92.636719 109.570312 Z M 92.636719 109.558594 " fill-opacity="1" fill-rule="nonzero"/></g><path fill="#8c079d" d="M 120.96875 120.0625 C 120.902344 120.128906 119.386719 120.710938 119.242188 120.738281 C 118.730469 120.824219 117.738281 120.816406 117.203125 120.765625 C 114.441406 120.519531 110.398438 119.203125 108.1875 117.441406 C 108.027344 117.308594 107.789062 117.355469 107.75 117.316406 C 107.703125 117.269531 107.769531 117.097656 107.710938 117.023438 C 107.519531 116.765625 107.128906 116.335938 107.074219 116.050781 C 106.890625 115.203125 107.113281 114.132812 107.617188 113.4375 C 107.722656 113.296875 108.675781 112.570312 108.78125 112.542969 C 109.027344 112.476562 109.339844 112.542969 109.648438 112.496094 C 109.742188 112.476562 109.828125 112.34375 109.933594 112.3125 C 110.054688 112.277344 111.074219 112.484375 111.257812 112.542969 C 111.78125 112.714844 112.21875 113.125 112.675781 113.398438 C 113.21875 113.734375 113.363281 113.828125 113.898438 114.230469 C 114.800781 114.90625 114.726562 114.402344 114.335938 113.5625 C 113.800781 112.429688 112.914062 110.949219 112.753906 109.65625 C 112.65625 108.941406 112.695312 107.835938 113.097656 107.242188 C 113.753906 106.289062 115.230469 105.730469 116.28125 106.359375 C 116.613281 106.558594 117.433594 107.378906 117.679688 107.703125 C 118.699219 109.027344 121.175781 115.257812 121.425781 116.984375 C 121.492188 117.441406 121.539062 118.851562 121.433594 119.222656 C 121.386719 119.394531 121.167969 119.460938 121.101562 119.574219 C 120.996094 119.757812 121.007812 120.003906 120.988281 120.023438 Z M 120.96875 120.0625 " fill-opacity="1" fill-rule="nonzero"/><path fill="#8c079d" d="M 181.074219 127.410156 C 181.121094 127.457031 181.054688 127.628906 181.109375 127.703125 C 181.433594 128.152344 182.074219 129.105469 182.207031 129.589844 C 182.351562 130.144531 182.40625 131.03125 182.453125 131.621094 C 182.492188 131.992188 182.425781 132.175781 182.796875 132.421875 C 183.140625 132.144531 183.054688 131.476562 183.167969 131.191406 C 183.550781 130.164062 184.410156 128.476562 185.085938 127.617188 C 185.972656 126.503906 187.285156 125.65625 188.628906 126.589844 C 189.753906 127.371094 189.925781 128.496094 189.773438 129.800781 C 189.574219 131.613281 186.695312 137.789062 185.542969 139.285156 C 185.378906 139.492188 184.445312 140.457031 184.292969 140.550781 C 184.1875 140.609375 183.542969 140.855469 183.457031 140.875 C 183.371094 140.894531 181.921875 140.417969 181.757812 140.320312 C 180.835938 139.796875 178.730469 136.738281 178.136719 135.710938 C 177.519531 134.625 176.28125 131.871094 176.078125 130.6875 C 175.945312 129.933594 175.964844 128.695312 176.394531 128.078125 C 176.925781 127.292969 178.203125 126.570312 179.148438 126.703125 C 179.386719 126.734375 179.5 126.886719 179.625 126.914062 C 179.84375 126.960938 180.074219 126.914062 180.261719 126.960938 C 180.445312 127.007812 180.511719 127.226562 180.625 127.292969 C 180.804688 127.398438 181.042969 127.390625 181.074219 127.417969 Z M 181.074219 127.410156 " fill-opacity="1" fill-rule="nonzero"/><g fill="#7d178a" fill-opacity="1"><g transform="translate(76.054951, 208.475161)"><g><path d="M 2.59375 0 L 2.515625 0 C 2.054688 0 1.828125 -0.226562 1.828125 -0.6875 L 1.453125 -19.671875 C 1.453125 -19.867188 1.519531 -20.039062 1.65625 -20.1875 C 1.789062 -20.332031 1.957031 -20.40625 2.15625 -20.40625 L 2.1875 -20.40625 C 2.382812 -20.40625 2.554688 -20.332031 2.703125 -20.1875 C 2.847656 -20.039062 2.921875 -19.867188 2.921875 -19.671875 L 3.28125 -0.734375 C 3.28125 -0.535156 3.210938 -0.363281 3.078125 -0.21875 C 2.941406 -0.0703125 2.78125 0 2.59375 0 Z M 2 -24.453125 C 1.738281 -24.453125 1.519531 -24.539062 1.34375 -24.71875 C 1.175781 -24.90625 1.09375 -25.117188 1.09375 -25.359375 C 1.09375 -25.628906 1.175781 -25.851562 1.34375 -26.03125 C 1.519531 -26.21875 1.738281 -26.3125 2 -26.3125 C 2.269531 -26.3125 2.488281 -26.21875 2.65625 -26.03125 C 2.832031 -25.851562 2.921875 -25.628906 2.921875 -25.359375 C 2.921875 -25.117188 2.832031 -24.90625 2.65625 -24.71875 C 2.488281 -24.539062 2.269531 -24.453125 2 -24.453125 Z M 1.96875 -25.359375 L 2.046875 -25.359375 L 2 -25.390625 Z M 1.96875 -25.359375 "/></g></g></g><g fill="#7d178a" fill-opacity="1"><g transform="translate(80.426847, 208.475161)"><g/></g></g><g fill="#7d178a" fill-opacity="1"><g transform="translate(87.713344, 208.475161)"><g><path d="M 4.921875 0.03125 C 4.117188 0.03125 3.367188 -0.128906 2.671875 -0.453125 C 1.984375 -0.785156 1.425781 -1.226562 1 -1.78125 C 0.570312 -2.34375 0.359375 -2.988281 0.359375 -3.71875 C 0.359375 -4.25 0.503906 -4.816406 0.796875 -5.421875 C 1.285156 -6.421875 2.035156 -7.300781 3.046875 -8.0625 C 4.054688 -8.832031 5.066406 -9.4375 6.078125 -9.875 C 5.546875 -10.65625 4.957031 -11.398438 4.3125 -12.109375 C 3.675781 -12.828125 3.050781 -13.578125 2.4375 -14.359375 C 1.707031 -15.273438 1.117188 -16.269531 0.671875 -17.34375 C 0.222656 -18.414062 0 -19.472656 0 -20.515625 C 0 -21.242188 0.125 -21.953125 0.375 -22.640625 C 0.632812 -23.335938 1.046875 -23.976562 1.609375 -24.5625 C 2.140625 -25.113281 2.710938 -25.507812 3.328125 -25.75 C 3.953125 -26 4.578125 -26.125 5.203125 -26.125 C 6.054688 -26.125 6.878906 -25.921875 7.671875 -25.515625 C 8.460938 -25.117188 9.140625 -24.546875 9.703125 -23.796875 C 10.273438 -23.046875 10.660156 -22.160156 10.859375 -21.140625 L 10.859375 -20.984375 C 10.859375 -20.597656 10.664062 -20.359375 10.28125 -20.265625 L 10.125 -20.265625 C 9.738281 -20.265625 9.5 -20.457031 9.40625 -20.84375 C 9.15625 -21.988281 8.632812 -22.910156 7.84375 -23.609375 C 7.0625 -24.316406 6.179688 -24.671875 5.203125 -24.671875 C 4.265625 -24.671875 3.414062 -24.289062 2.65625 -23.53125 C 2.21875 -23.09375 1.90625 -22.613281 1.71875 -22.09375 C 1.539062 -21.570312 1.453125 -21.035156 1.453125 -20.484375 C 1.453125 -19.578125 1.660156 -18.675781 2.078125 -17.78125 C 2.492188 -16.882812 3.003906 -16.046875 3.609375 -15.265625 C 4.242188 -14.484375 4.90625 -13.695312 5.59375 -12.90625 C 6.28125 -12.125 6.90625 -11.285156 7.46875 -10.390625 C 8.175781 -10.609375 8.953125 -10.789062 9.796875 -10.9375 C 10.648438 -11.082031 11.585938 -11.15625 12.609375 -11.15625 C 12.878906 -11.15625 13.144531 -11.144531 13.40625 -11.125 C 13.675781 -11.113281 13.941406 -11.097656 14.203125 -11.078125 C 14.640625 -11.023438 14.859375 -10.78125 14.859375 -10.34375 C 14.859375 -10.125 14.785156 -9.941406 14.640625 -9.796875 C 14.492188 -9.648438 14.3125 -9.59375 14.09375 -9.625 C 13.851562 -9.644531 13.613281 -9.660156 13.375 -9.671875 C 13.132812 -9.679688 12.90625 -9.6875 12.6875 -9.6875 C 10.9375 -9.6875 9.441406 -9.484375 8.203125 -9.078125 C 8.535156 -8.367188 8.785156 -7.65625 8.953125 -6.9375 C 9.128906 -6.21875 9.21875 -5.546875 9.21875 -4.921875 C 9.21875 -3.515625 8.847656 -2.335938 8.109375 -1.390625 C 7.367188 -0.441406 6.304688 0.03125 4.921875 0.03125 Z M 6.34375 -1.828125 C 6.851562 -2.117188 7.21875 -2.53125 7.4375 -3.0625 C 7.65625 -3.59375 7.765625 -4.175781 7.765625 -4.8125 C 7.765625 -5.4375 7.671875 -6.082031 7.484375 -6.75 C 7.304688 -7.425781 7.082031 -8.039062 6.8125 -8.59375 C 5.914062 -8.226562 5.015625 -7.71875 4.109375 -7.0625 C 3.210938 -6.40625 2.546875 -5.640625 2.109375 -4.765625 C 1.941406 -4.453125 1.859375 -4.101562 1.859375 -3.71875 C 1.859375 -3.007812 2.164062 -2.453125 2.78125 -2.046875 C 3.40625 -1.648438 4.082031 -1.453125 4.8125 -1.453125 C 5.4375 -1.453125 5.945312 -1.578125 6.34375 -1.828125 Z M 6.34375 -1.828125 "/></g></g></g><g fill="#7d178a" fill-opacity="1"><g transform="translate(101.630555, 208.475161)"><g><path d="M 0.90625 -5.09375 C 0.519531 -5.34375 0.25 -5.675781 0.09375 -6.09375 C -0.0585938 -6.519531 -0.140625 -7.015625 -0.140625 -7.578125 C -0.140625 -8.546875 0.0195312 -9.625 0.34375 -10.8125 C 0.675781 -12.007812 0.988281 -13.140625 1.28125 -14.203125 C 1.320312 -14.398438 1.429688 -14.550781 1.609375 -14.65625 C 1.796875 -14.769531 1.988281 -14.800781 2.1875 -14.75 C 2.382812 -14.707031 2.53125 -14.59375 2.625 -14.40625 C 2.71875 -14.226562 2.742188 -14.039062 2.703125 -13.84375 C 2.628906 -13.601562 2.507812 -13.226562 2.34375 -12.71875 C 2.1875 -12.207031 2.03125 -11.632812 1.875 -11 C 1.71875 -10.375 1.578125 -9.75 1.453125 -9.125 C 1.335938 -8.507812 1.28125 -7.96875 1.28125 -7.5 C 1.28125 -6.894531 1.398438 -6.519531 1.640625 -6.375 C 1.691406 -6.351562 1.738281 -6.332031 1.78125 -6.3125 C 1.832031 -6.300781 1.882812 -6.296875 1.9375 -6.296875 C 2.300781 -6.296875 2.738281 -6.53125 3.25 -7 C 3.757812 -7.476562 4.289062 -8.109375 4.84375 -8.890625 C 5.40625 -9.671875 5.925781 -10.5 6.40625 -11.375 C 6.582031 -11.613281 6.816406 -11.734375 7.109375 -11.734375 C 7.148438 -11.734375 7.195312 -11.726562 7.25 -11.71875 C 7.300781 -11.707031 7.363281 -11.6875 7.4375 -11.65625 C 7.675781 -11.488281 7.796875 -11.269531 7.796875 -11 C 7.796875 -10.976562 7.789062 -10.9375 7.78125 -10.875 C 7.769531 -10.8125 7.75 -10.742188 7.71875 -10.671875 C 7.425781 -10.140625 7.066406 -9.539062 6.640625 -8.875 C 6.222656 -8.207031 5.753906 -7.5625 5.234375 -6.9375 C 4.710938 -6.320312 4.164062 -5.8125 3.59375 -5.40625 C 3.019531 -5.007812 2.453125 -4.8125 1.890625 -4.8125 C 1.578125 -4.8125 1.25 -4.90625 0.90625 -5.09375 Z M 0.796875 -16.5 C 0.410156 -16.5 0.179688 -16.671875 0.109375 -17.015625 C 0.0859375 -17.035156 0.078125 -17.117188 0.078125 -17.265625 C 0.078125 -17.585938 0.234375 -17.804688 0.546875 -17.921875 C 1.148438 -18.117188 1.742188 -18.328125 2.328125 -18.546875 C 2.910156 -18.765625 3.484375 -19.007812 4.046875 -19.28125 C 4.242188 -19.320312 4.34375 -19.34375 4.34375 -19.34375 C 4.675781 -19.34375 4.890625 -19.195312 4.984375 -18.90625 C 5.035156 -18.71875 5.0625 -18.625 5.0625 -18.625 C 5.0625 -18.300781 4.914062 -18.082031 4.625 -17.96875 C 3.457031 -17.425781 2.253906 -16.953125 1.015625 -16.546875 C 0.972656 -16.546875 0.9375 -16.535156 0.90625 -16.515625 C 0.882812 -16.503906 0.847656 -16.5 0.796875 -16.5 Z M 0.796875 -16.5 "/></g></g></g><g fill="#7d178a" fill-opacity="1"><g transform="translate(107.678347, 208.475161)"><g><path d="M 2 2.21875 C 1.738281 2.289062 1.519531 2.242188 1.34375 2.078125 C 1.175781 1.910156 1.09375 1.703125 1.09375 1.453125 C 1.09375 1.335938 1.128906 1.210938 1.203125 1.078125 C 1.273438 0.941406 1.410156 0.847656 1.609375 0.796875 C 2.285156 0.609375 2.816406 0.230469 3.203125 -0.328125 C 3.597656 -0.890625 3.796875 -1.484375 3.796875 -2.109375 C 3.796875 -2.671875 3.648438 -3.207031 3.359375 -3.71875 C 3.253906 -3.8125 3.203125 -3.945312 3.203125 -4.125 C 3.203125 -4.3125 3.28125 -4.476562 3.4375 -4.625 C 3.601562 -4.769531 3.78125 -4.84375 3.96875 -4.84375 C 4.21875 -4.84375 4.414062 -4.722656 4.5625 -4.484375 C 5.019531 -3.734375 5.25 -2.941406 5.25 -2.109375 C 5.25 -1.140625 4.960938 -0.246094 4.390625 0.5625 C 3.816406 1.375 3.019531 1.925781 2 2.21875 Z M 2 2.21875 "/></g></g></g><g fill="#7d178a" fill-opacity="1"><g transform="translate(114.0176, 208.475161)"><g/></g></g><g fill="#7d178a" fill-opacity="1"><g transform="translate(121.304097, 208.475161)"><g><path d="M -0.109375 -5.171875 C -0.691406 -5.585938 -0.984375 -6.28125 -0.984375 -7.25 C -0.984375 -7.976562 -0.804688 -8.78125 -0.453125 -9.65625 C -0.0976562 -10.53125 0.40625 -11.363281 1.0625 -12.15625 C 1.71875 -12.945312 2.5 -13.585938 3.40625 -14.078125 C 4.3125 -14.578125 5.335938 -14.828125 6.484375 -14.828125 C 6.679688 -14.828125 6.851562 -14.753906 7 -14.609375 C 7.144531 -14.460938 7.21875 -14.289062 7.21875 -14.09375 C 7.21875 -13.90625 7.144531 -13.738281 7 -13.59375 C 6.851562 -13.445312 6.679688 -13.375 6.484375 -13.375 C 5.515625 -13.375 4.648438 -13.148438 3.890625 -12.703125 C 3.140625 -12.253906 2.507812 -11.691406 2 -11.015625 C 1.488281 -10.347656 1.097656 -9.675781 0.828125 -9 C 0.566406 -8.320312 0.4375 -7.738281 0.4375 -7.25 C 0.4375 -6.644531 0.628906 -6.34375 1.015625 -6.34375 C 1.265625 -6.34375 1.546875 -6.460938 1.859375 -6.703125 C 2.367188 -7.066406 2.851562 -7.578125 3.3125 -8.234375 C 3.78125 -8.890625 4.210938 -9.582031 4.609375 -10.3125 C 5.003906 -11.039062 5.347656 -11.6875 5.640625 -12.25 C 5.835938 -12.539062 6.054688 -12.6875 6.296875 -12.6875 C 6.566406 -12.6875 6.773438 -12.582031 6.921875 -12.375 C 7.066406 -12.164062 7.09375 -11.925781 7 -11.65625 C 6.875 -11.320312 6.769531 -10.960938 6.6875 -10.578125 C 6.601562 -10.203125 6.535156 -9.820312 6.484375 -9.4375 C 6.410156 -9.070312 6.359375 -8.742188 6.328125 -8.453125 C 6.304688 -8.160156 6.296875 -7.894531 6.296875 -7.65625 C 6.296875 -7.164062 6.347656 -6.820312 6.453125 -6.625 C 6.566406 -6.4375 6.722656 -6.34375 6.921875 -6.34375 C 7.285156 -6.34375 7.734375 -6.597656 8.265625 -7.109375 C 8.804688 -7.617188 9.347656 -8.257812 9.890625 -9.03125 C 10.441406 -9.8125 10.910156 -10.59375 11.296875 -11.375 C 11.441406 -11.613281 11.660156 -11.734375 11.953125 -11.734375 C 12.078125 -11.734375 12.1875 -11.707031 12.28125 -11.65625 C 12.550781 -11.507812 12.6875 -11.289062 12.6875 -11 C 12.6875 -10.976562 12.675781 -10.9375 12.65625 -10.875 C 12.644531 -10.8125 12.628906 -10.742188 12.609375 -10.671875 C 11.441406 -8.535156 10.347656 -7.03125 9.328125 -6.15625 C 8.304688 -5.28125 7.429688 -4.84375 6.703125 -4.84375 C 6.066406 -4.84375 5.566406 -5.113281 5.203125 -5.65625 C 4.835938 -6.207031 4.679688 -6.910156 4.734375 -7.765625 C 4.472656 -7.328125 4.128906 -6.878906 3.703125 -6.421875 C 3.273438 -5.972656 2.828125 -5.597656 2.359375 -5.296875 C 1.898438 -4.992188 1.441406 -4.84375 0.984375 -4.84375 C 0.597656 -4.84375 0.230469 -4.953125 -0.109375 -5.171875 Z M -0.109375 -5.171875 "/></g></g></g><g fill="#7d178a" fill-opacity="1"><g transform="translate(132.197412, 208.475161)"><g><path d="M 3.828125 -4.875 C 2.347656 -4.875 1.296875 -5.21875 0.671875 -5.90625 C 0.0546875 -6.601562 -0.25 -7.441406 -0.25 -8.421875 C -0.25 -9.148438 -0.117188 -9.894531 0.140625 -10.65625 C 0.410156 -11.425781 0.773438 -12.125 1.234375 -12.75 C 1.703125 -13.382812 2.226562 -13.898438 2.8125 -14.296875 C 3.394531 -14.703125 3.988281 -14.90625 4.59375 -14.90625 C 5.125 -14.90625 5.585938 -14.722656 5.984375 -14.359375 C 6.390625 -13.992188 6.59375 -13.566406 6.59375 -13.078125 C 6.59375 -12.816406 6.546875 -12.597656 6.453125 -12.421875 C 6.273438 -12.109375 6.039062 -11.953125 5.75 -11.953125 C 5.75 -11.953125 5.65625 -11.976562 5.46875 -12.03125 C 5.175781 -12.21875 5.03125 -12.445312 5.03125 -12.71875 C 5.03125 -12.71875 5.050781 -12.816406 5.09375 -13.015625 L 5.09375 -13.125 C 5 -13.34375 4.832031 -13.453125 4.59375 -13.453125 C 4.300781 -13.453125 3.96875 -13.296875 3.59375 -12.984375 C 3.21875 -12.679688 2.835938 -12.285156 2.453125 -11.796875 C 2.078125 -11.316406 1.769531 -10.789062 1.53125 -10.21875 C 1.289062 -9.644531 1.171875 -9.082031 1.171875 -8.53125 C 1.171875 -8.257812 1.207031 -7.988281 1.28125 -7.71875 C 1.394531 -7.3125 1.671875 -6.96875 2.109375 -6.6875 C 2.546875 -6.40625 3.109375 -6.265625 3.796875 -6.265625 C 4.710938 -6.265625 5.785156 -6.644531 7.015625 -7.40625 C 8.242188 -8.175781 9.441406 -9.519531 10.609375 -11.4375 C 10.753906 -11.65625 10.972656 -11.765625 11.265625 -11.765625 C 11.378906 -11.765625 11.488281 -11.742188 11.59375 -11.703125 C 11.832031 -11.554688 11.953125 -11.347656 11.953125 -11.078125 C 11.953125 -10.929688 11.914062 -10.796875 11.84375 -10.671875 C 10.507812 -8.460938 9.132812 -6.941406 7.71875 -6.109375 C 6.3125 -5.285156 5.015625 -4.875 3.828125 -4.875 Z M 3.828125 -4.875 "/></g></g></g><g fill="#7d178a" fill-opacity="1"><g transform="translate(142.252779, 208.475161)"><g><path d="M 3.828125 -4.84375 C 2.347656 -4.84375 1.296875 -5.203125 0.671875 -5.921875 C 0.0546875 -6.640625 -0.25 -7.484375 -0.25 -8.453125 C -0.25 -9.347656 -0.0390625 -10.269531 0.375 -11.21875 C 0.800781 -12.164062 1.367188 -12.984375 2.078125 -13.671875 C 2.535156 -14.097656 2.976562 -14.398438 3.40625 -14.578125 C 3.832031 -14.765625 4.226562 -14.859375 4.59375 -14.859375 C 5.175781 -14.859375 5.648438 -14.675781 6.015625 -14.3125 C 6.378906 -13.945312 6.5625 -13.5 6.5625 -12.96875 C 6.5625 -12.34375 6.285156 -11.742188 5.734375 -11.171875 C 5.191406 -10.597656 4.515625 -10.125 3.703125 -9.75 C 2.890625 -9.375 2.066406 -9.148438 1.234375 -9.078125 C 1.210938 -8.953125 1.195312 -8.835938 1.1875 -8.734375 C 1.175781 -8.640625 1.171875 -8.546875 1.171875 -8.453125 C 1.171875 -7.671875 1.414062 -7.113281 1.90625 -6.78125 C 2.40625 -6.457031 3 -6.296875 3.6875 -6.296875 C 4.164062 -6.296875 4.644531 -6.363281 5.125 -6.5 C 5.613281 -6.632812 6.066406 -6.8125 6.484375 -7.03125 C 7.210938 -7.445312 7.921875 -8.019531 8.609375 -8.75 C 9.304688 -9.476562 9.972656 -10.375 10.609375 -11.4375 C 10.753906 -11.65625 10.957031 -11.765625 11.21875 -11.765625 C 11.363281 -11.765625 11.488281 -11.726562 11.59375 -11.65625 C 11.832031 -11.5625 11.953125 -11.359375 11.953125 -11.046875 C 11.953125 -10.921875 11.914062 -10.796875 11.84375 -10.671875 C 10.476562 -8.441406 9.097656 -6.910156 7.703125 -6.078125 C 6.304688 -5.253906 5.015625 -4.84375 3.828125 -4.84375 Z M 1.75 -10.640625 C 2.351562 -10.734375 2.914062 -10.925781 3.4375 -11.21875 C 3.96875 -11.507812 4.390625 -11.835938 4.703125 -12.203125 C 5.015625 -12.566406 5.132812 -12.882812 5.0625 -13.15625 C 5.039062 -13.320312 4.894531 -13.40625 4.625 -13.40625 C 4.289062 -13.40625 3.847656 -13.195312 3.296875 -12.78125 C 2.753906 -12.375 2.238281 -11.660156 1.75 -10.640625 Z M 1.75 -10.640625 "/></g></g></g><g fill="#7d178a" fill-opacity="1"><g transform="translate(152.381006, 208.475161)"><g><path d="M 1.53125 10.5 C 1.332031 10.5 1.160156 10.429688 1.015625 10.296875 C 0.867188 10.160156 0.796875 9.992188 0.796875 9.796875 C 0.796875 9.140625 0.789062 8.476562 0.78125 7.8125 C 0.769531 7.144531 0.765625 6.484375 0.765625 5.828125 C 0.765625 0.679688 0.875 -4.550781 1.09375 -9.875 L 0.984375 -9.6875 C 0.859375 -9.5 0.664062 -9.40625 0.40625 -9.40625 C 0.226562 -9.40625 0.0820312 -9.441406 -0.03125 -9.515625 C -0.25 -9.660156 -0.359375 -9.863281 -0.359375 -10.125 C -0.359375 -10.25 -0.320312 -10.382812 -0.25 -10.53125 C 0.152344 -11.09375 0.628906 -11.640625 1.171875 -12.171875 C 1.210938 -12.773438 1.238281 -13.375 1.25 -13.96875 C 1.269531 -14.5625 1.300781 -15.164062 1.34375 -15.78125 C 1.375 -15.96875 1.460938 -16.132812 1.609375 -16.28125 C 1.753906 -16.425781 1.921875 -16.488281 2.109375 -16.46875 C 2.304688 -16.46875 2.472656 -16.390625 2.609375 -16.234375 C 2.742188 -16.078125 2.8125 -15.898438 2.8125 -15.703125 L 2.703125 -13.40625 C 3.328125 -13.820312 4.003906 -14.175781 4.734375 -14.46875 C 5.460938 -14.757812 6.179688 -14.90625 6.890625 -14.90625 C 7.804688 -14.90625 8.472656 -14.65625 8.890625 -14.15625 C 9.304688 -13.65625 9.515625 -13.03125 9.515625 -12.28125 C 9.515625 -11.28125 9.171875 -10.164062 8.484375 -8.9375 C 7.804688 -7.71875 6.859375 -6.691406 5.640625 -5.859375 C 5.234375 -5.597656 4.789062 -5.367188 4.3125 -5.171875 C 3.84375 -4.972656 3.363281 -4.875 2.875 -4.875 C 2.613281 -4.875 2.445312 -4.890625 2.375 -4.921875 C 2.320312 -3.117188 2.28125 -1.34375 2.25 0.40625 C 2.226562 2.15625 2.21875 3.914062 2.21875 5.6875 L 2.21875 7.71875 C 2.21875 8.0625 2.21875 8.398438 2.21875 8.734375 C 2.21875 9.078125 2.234375 9.421875 2.265625 9.765625 C 2.265625 9.960938 2.191406 10.132812 2.046875 10.28125 C 1.898438 10.425781 1.726562 10.5 1.53125 10.5 Z M 2.40625 -6.40625 C 2.5 -6.382812 2.585938 -6.367188 2.671875 -6.359375 C 2.765625 -6.347656 2.832031 -6.34375 2.875 -6.34375 C 3.457031 -6.34375 4.054688 -6.539062 4.671875 -6.9375 C 5.296875 -7.34375 5.867188 -7.859375 6.390625 -8.484375 C 6.910156 -9.117188 7.328125 -9.769531 7.640625 -10.4375 C 7.960938 -11.101562 8.125 -11.691406 8.125 -12.203125 C 8.125 -12.640625 8.003906 -12.96875 7.765625 -13.1875 C 7.585938 -13.363281 7.296875 -13.453125 6.890625 -13.453125 C 6.328125 -13.453125 5.65625 -13.285156 4.875 -12.953125 C 4.101562 -12.628906 3.34375 -12.148438 2.59375 -11.515625 C 2.539062 -10.660156 2.507812 -9.804688 2.5 -8.953125 C 2.488281 -8.109375 2.457031 -7.257812 2.40625 -6.40625 Z M 2.40625 -6.40625 "/></g></g></g><g fill="#7d178a" fill-opacity="1"><g transform="translate(163.675077, 208.475161)"><g><path d="M 1.453125 -4.65625 L 1.421875 -4.65625 C 1.222656 -4.65625 1.050781 -4.722656 0.90625 -4.859375 C 0.757812 -4.992188 0.6875 -5.160156 0.6875 -5.359375 C 0.644531 -6.378906 0.609375 -7.367188 0.578125 -8.328125 C 0.554688 -9.285156 0.546875 -10.238281 0.546875 -11.1875 C 0.546875 -15.53125 0.800781 -19.707031 1.3125 -23.71875 L -5.09375 -23.53125 C -5.289062 -23.53125 -5.460938 -23.601562 -5.609375 -23.75 C -5.753906 -23.894531 -5.828125 -24.066406 -5.828125 -24.265625 L -5.828125 -24.34375 C -5.828125 -24.78125 -5.597656 -25 -5.140625 -25 L 1.53125 -25.21875 C 1.800781 -26.9375 2.09375 -28.613281 2.40625 -30.25 C 2.5 -30.632812 2.742188 -30.828125 3.140625 -30.828125 C 3.378906 -30.828125 3.566406 -30.734375 3.703125 -30.546875 C 3.835938 -30.367188 3.878906 -30.171875 3.828125 -29.953125 C 3.679688 -29.171875 3.535156 -28.382812 3.390625 -27.59375 C 3.242188 -26.8125 3.109375 -26.019531 2.984375 -25.21875 L 11.265625 -25.4375 C 11.484375 -25.4375 11.664062 -25.363281 11.8125 -25.21875 C 11.957031 -25.070312 12.03125 -24.898438 12.03125 -24.703125 C 12.03125 -24.503906 11.957031 -24.332031 11.8125 -24.1875 C 11.664062 -24.039062 11.492188 -23.96875 11.296875 -23.96875 L 2.8125 -23.75 C 2.539062 -21.738281 2.335938 -19.691406 2.203125 -17.609375 C 2.066406 -15.535156 2 -13.394531 2 -11.1875 C 2 -10.257812 2.007812 -9.316406 2.03125 -8.359375 C 2.0625 -7.398438 2.101562 -6.421875 2.15625 -5.421875 C 2.15625 -5.234375 2.085938 -5.054688 1.953125 -4.890625 C 1.816406 -4.734375 1.648438 -4.65625 1.453125 -4.65625 Z M 1.453125 -4.65625 "/></g></g></g><g fill="#7d178a" fill-opacity="1"><g transform="translate(169.686365, 208.475161)"><g><path d="M 5.796875 -6.8125 C 4.972656 -5.5 4.050781 -4.84375 3.03125 -4.84375 C 2.25 -4.84375 1.5625 -5.207031 0.96875 -5.9375 C 0.375 -6.664062 0.078125 -7.648438 0.078125 -8.890625 C 0.078125 -9.671875 0.195312 -10.4375 0.4375 -11.1875 C 0.632812 -11.894531 0.925781 -12.535156 1.3125 -13.109375 C 1.695312 -13.691406 2.160156 -14.21875 2.703125 -14.6875 C 2.796875 -14.78125 2.953125 -14.828125 3.171875 -14.828125 C 3.335938 -14.828125 3.472656 -14.789062 3.578125 -14.71875 C 4.035156 -14.789062 4.460938 -14.65625 4.859375 -14.3125 C 5.265625 -13.976562 5.601562 -13.554688 5.875 -13.046875 C 6.15625 -12.535156 6.347656 -12.0625 6.453125 -11.625 C 6.671875 -11.570312 6.90625 -11.519531 7.15625 -11.46875 C 7.414062 -11.425781 7.691406 -11.40625 7.984375 -11.40625 C 8.734375 -11.40625 9.507812 -11.523438 10.3125 -11.765625 C 10.363281 -11.765625 10.394531 -11.769531 10.40625 -11.78125 C 10.414062 -11.800781 10.445312 -11.8125 10.5 -11.8125 C 10.832031 -11.8125 11.070312 -11.628906 11.21875 -11.265625 L 11.21875 -11.109375 C 11.21875 -10.722656 11.035156 -10.46875 10.671875 -10.34375 C 9.648438 -10.082031 8.738281 -9.953125 7.9375 -9.953125 C 7.5 -9.953125 7.078125 -9.988281 6.671875 -10.0625 C 6.671875 -9.5 6.585938 -8.9375 6.421875 -8.375 C 6.265625 -7.820312 6.054688 -7.300781 5.796875 -6.8125 Z M 4.515625 -7.578125 C 4.710938 -7.921875 4.875 -8.300781 5 -8.71875 C 5.132812 -9.144531 5.203125 -9.59375 5.203125 -10.0625 C 5.203125 -10.15625 5.195312 -10.238281 5.1875 -10.3125 C 5.175781 -10.382812 5.171875 -10.457031 5.171875 -10.53125 C 4.566406 -10.800781 4.066406 -11.132812 3.671875 -11.53125 C 3.285156 -11.9375 3.007812 -12.34375 2.84375 -12.75 C 2.382812 -12.164062 2.054688 -11.546875 1.859375 -10.890625 C 1.660156 -10.234375 1.5625 -9.613281 1.5625 -9.03125 C 1.5625 -8.257812 1.695312 -7.601562 1.96875 -7.0625 C 2.238281 -6.53125 2.578125 -6.265625 2.984375 -6.265625 C 3.472656 -6.265625 3.984375 -6.703125 4.515625 -7.578125 Z M 4.515625 -7.578125 "/></g></g></g><g fill="#7d178a" fill-opacity="1"><g transform="translate(179.268105, 208.475161)"><g/></g></g><g fill="#7d178a" fill-opacity="1"><g transform="translate(186.554602, 208.475161)"><g><path d="M 2.1875 -5.90625 L 2.15625 -5.90625 C 1.957031 -5.90625 1.789062 -5.976562 1.65625 -6.125 C 1.519531 -6.269531 1.453125 -6.4375 1.453125 -6.625 L 1.828125 -25.578125 C 1.828125 -25.773438 1.90625 -25.945312 2.0625 -26.09375 C 2.21875 -26.238281 2.394531 -26.3125 2.59375 -26.3125 C 3.050781 -26.3125 3.28125 -26.054688 3.28125 -25.546875 L 2.921875 -6.59375 C 2.921875 -6.394531 2.847656 -6.226562 2.703125 -6.09375 C 2.554688 -5.96875 2.382812 -5.90625 2.1875 -5.90625 Z M 2 0 C 1.394531 0 1.09375 -0.300781 1.09375 -0.90625 C 1.09375 -1.519531 1.394531 -1.828125 2 -1.828125 C 2.613281 -1.828125 2.921875 -1.519531 2.921875 -0.90625 C 2.921875 -0.300781 2.613281 0 2 0 Z M 2 -0.875 L 2.046875 -0.90625 L 2 -0.953125 L 1.96875 -0.90625 Z M 2 -0.875 "/></g></g></g></g></g></svg>